{"title":"Last Vegas(2013)1080p_PapaFatHead.mp4","uid":9595267,"size":3875528755,"categoryP":"video","categoryS":"hd___movies","magnet":"?xt=urn:btih:e60fe36e242d7e924a38cdab52dd65f05205fda3&amp;dn=Last+Vegas%282013%291080p_PapaFatHead.mp4&amp;tr=udp%3A%2F%2Ftracker.openbittorrent.com%3A80&amp;tr=udp%3A%2F%2Fopen.demonii.com%3A1337&amp;tr=udp%3A%2F%2Ftracker.coppersurfer.tk%3A6969&amp;tr=udp%3A%2F%2Fexodus.desync.com%3A6969","seeders":1,"leechers":0,"uploader":"PapaFatHead","files":1,"time":1391995636,"description":"General\nComplete name                  : Last Vegas(2013)1080p MP4_PapaFatHead.mp4\nFormat                         : MPEG-4\nFormat profile                 : Base Media / Version 2\nCodec ID                       : mp42\nFile size                      : 3.61 GiB\nDuration                       : 1h 45mn\nOverall bit rate mode          : Variable\nOverall bit rate               : 4 875 Kbps\nMovie name                     : Last Vegas\n\n\nVideo\nID                             : 1\nFormat                         : AVC\nFormat/Info                    : Advanced Video Codec\nFormat profile                 : &lt;a class=&quot;__cf_email__&quot; href=&quot;/cdn-cgi/l/email-protection&quot; data-cfemail=&quot;d09db1b9be909ce4fee0&quot;&gt;[email&amp;#160;protected]&lt;/a&gt;&lt;script cf-hash='f9e31' type=&quot;text/javascript&quot;&gt;\n/* &lt;![CDATA[ */!function(){try{var t=&quot;currentScript&quot;in document?document.currentScript:function(){for(var t=document.getElementsByTagName(&quot;script&quot;),e=t.length;e--;)if(t[e].getAttribute(&quot;cf-hash&quot;))return t[e]}();if(t&amp;&amp;t.previousSibling){var e,r,n,i,c=t.previousSibling,a=c.getAttribute(&quot;data-cfemail&quot;);if(a){for(e=&quot;&quot;,r=parseInt(a.substr(0,2),16),n=2;a.length-n;n+=2)i=parseInt(a.substr(n,2),16)^r,e+=String.fromCharCode(i);e=document.createTextNode(e),c.parentNode.replaceChild(e,c)}}}catch(u){}}();/* ]]&gt; */&lt;/script&gt;\nFormat settings, CABAC         : Yes\nFormat settings, ReFrames      : 4 frames\nCodec ID                       : avc1\nCodec ID/Info                  : Advanced Video Coding\nDuration                       : 1h 45mn\nBit rate                       : 4 755 Kbps\nWidth                          : 1 920 pixels\nHeight                         : 800 pixels\nDisplay aspect ratio           : 2.40:1\nFrame rate mode                : Variable\nFrame rate                     : 23.976 fps\nMinimum frame rate             : 23.810 fps\nMaximum frame rate             : 24.390 fps\nColor space                    : YUV\nChroma subsampling             : 4:2:0\nBit depth                      : 8 bits\nScan type                      : Progressive\nBits/(Pixel*Frame)             : 0.129\nStream size                    : 3.49 GiB (97%)\nWriting library                : x264 core 130 r2273 b3065e6\n\nAudio\nID                             : 2\nFormat                         : AAC\nFormat/Info                    : Advanced Audio Codec\nFormat profile                 : LC\nCodec ID                       : 40\nDuration                       : 1h 45mn\nBit rate mode                  : Variable\nBit rate                       : 158 Kbps\nMaximum bit rate               : 312 Kbps\nChannel(s)                     : 2 channels\nChannel positions              : Front: L R\nSampling rate                  : 48.0 KHz\nCompression mode               : Lossy\nStream size                    : 120 MiB (3%)\nLanguage                       : English\n\nPlease Seed &amp; Enjoy !!!\n","torrent":{"xt":"urn:btih:e60fe36e242d7e924a38cdab52dd65f05205fda3","amp;dn":"Last+Vegas%282013%291080p_PapaFatHead.mp4","amp;tr":["udp%3A%2F%2Ftracker.openbittorrent.com%3A80","udp%3A%2F%2Fopen.demonii.com%3A1337","udp%3A%2F%2Ftracker.coppersurfer.tk%3A6969","udp%3A%2F%2Fexodus.desync.com%3A6969"],"infoHash":"e60fe36e242d7e924a38cdab52dd65f05205fda3","infoHashBuffer":{"type":"Buffer","data":[230,15,227,110,36,45,126,146,74,56,205,171,82,221,101,240,82,5,253,163]},"announce":[],"urlList":[]}}